<svg xmlns="http://www.w3.org/2000/svg" xml:space="preserve" viewBox="0 0 500 500">
  <path fill="#fefee9" d="M130.824 209.95v-65.807c16.596-.043 33.424-.086 50.668.28-1.777 2.607-4.315 4.56-6.098 7.051-5.287 7.388-9.847 15.331-15.502 22.41-5.748 7.195-11.877 14.337-18.974 20.106-4.127 3.355-6.562 6.37-7.13 11.485-.175 1.582-1.931 2.989-2.964 4.476"/>
  <path fill="#fefedb" d="M130.674 210.3c1.183-1.836 2.939-3.243 3.114-4.825.568-5.115 3.003-8.13 7.13-11.485 7.097-5.769 13.226-12.911 18.974-20.106 5.655-7.079 10.215-15.022 15.502-22.41 1.783-2.492 4.32-4.444 6.561-6.977.804-.386 1.56-.438 2.778-.272.462.22.903.31.903.31l.35-.33c3.997 1.341 7.994 2.682 11.774 4.506-5.277.997-10.151 1.71-9.134 8.77.018.127-.15.286-.241.423-2.794 4.211-6.005 8.21-8.285 12.684-3.192 6.267-10.001 11.336-7.542 20.062-.435 9.28-.572 18.3-.918 27.327-.208.008-.625.011-.627-.361-.013-1.118-.024-1.863-.023-3.058.001-3.148-.01-5.845-.011-8.987.004-2.814-.002-5.184 0-7.952-1.295-1.96-2.335-4.27-3.984-4.852-1.384-.487-3.876.594-5.19 1.758-5.27 4.67-10.185 9.742-15.43 14.445-1.652 1.481-5.105 1.844-5.69 3.458-1.657 4.586-4.853 4.85-8.757 4.39-.42-.402-.761-.614-1.101-.825-.101-1.782-.202-3.564-.153-5.694"/>
  <path fill="#fedc25" d="M367.06 144.978s.47.041.898.337c1.305 1.077 2.182 1.859 3.055 2.903-.007.437-.01.611-.348.838-8.78 7.328-16.943 14.86-29.466 14-10.875-.748-21.816-1.195-32.7-.855-5.21.163-10.354 2.455-15.521 3.417 3.135-4.525 5.706-9.323 9.546-12.662 3.864-3.36 8.99-5.267 13.876-7.826.73.008 1.146.03 1.896.295 6.13.064 11.929-.116 18.194-.314 6.47-.013 12.475-.007 18.714.226 1.432.077 2.63-.073 4.272-.241 2.824-.051 5.204-.085 7.584-.118"/>
  <path fill="#f74f14" d="M216.027 349.208c-4.784 7.445-12.2 10.63-21.075 12.313-4.13-.385-7.558-.494-10.968-.966 1.561-2.105 3.15-3.81 4.638-5.6 1.82-2.187 4.744-4.27 5.1-6.705.998-6.816 1.319-13.802 1.117-20.699-.122-4.207-1.173-8.758-6.673-9.833.302-1.148.49-1.986.707-2.824.032.002.046.063.3-.08.41-.49.564-.84.752-1.521 2.558-3.497 5.082-6.66 7.708-9.432-.112 1.357-.029 2.568-.59 3.245-3.003 3.63-.863 6.513.81 9.82 1.508 2.985 2.53 6.346 3.087 9.655 1.23 7.324 1.808 14.76 3.093 22.073.807 4.586 3.365 5.314 7.086 2.633 1.578-1.137 3.21-2.202 4.837-2.994.037.508.054.712.07.915"/>
  <path fill="#f86914" d="M188.842 314.893c-.187.839-.374 1.677-.733 3.178-1.467 3.094-4.354 6.092-3.732 7.841 1.397 3.93-.15 6.7-1.1 10.099-2.448 8.756-7.19 15.304-15.544 19.178-1.496.694-2.652 2.12-3.966 3.207l.667 1.252 19.532 1.27c3.428.109 6.857.218 10.601.563-13.012 1.162-26.37 2.995-39.599-.477-3.01-.79-5.863-2.17-8.624-3.604 3.143.217 5.253.377 7.486-3.073 2.279-3.52 6.58-5.864 10.27-8.308 7.798-5.167 13.331-11.637 13.978-21.703 3.734-3.304 7.249-6.363 10.764-9.423"/>
  <path fill="#fefecc" d="M172.856 190.39c-2.757-8.466 4.052-13.535 7.244-19.802 2.28-4.474 5.49-8.473 8.285-12.684.091-.137.26-.296.241-.422-1.017-7.062 3.857-7.774 9.305-8.453 3.631 3.955 6.874 8.074 9.808 12.536-1.491-.518-3.008-1.15-3.792-2.286-2.203-3.195-3.808-2.566-5.367.433-1.501 2.888-2.653 6.038-4.575 8.612-5.046 6.758-10.653 13.107-15.512 19.988-1.161 1.644-.239 4.733-.352 7.154a5.2 5.2 0 0 1-.762 2.495c-1.7-2.631-3.111-5.1-4.523-7.57"/>
  <path fill="#fe9b12" d="M248.107 225.303c3.58-4.687 7.16-9.374 11.412-14.18.95-.096 1.225-.075 1.533.289 5.126 10.398 14.452 13.166 24.561 14.591 6.17.87 12.732-.694 18.436 3.303-.028.79-.038 1.24-.39 1.75-1.467 2.332-2.59 4.607-4.02 6.9-.71.077-1.113.137-1.678-.113-1.701-2.135-3.242-3.96-4.526-5.482-2.065 1.016-3.677 2.55-5.119 2.403-11.49-1.17-21.515-5.63-29.53-14.151-2.381-2.53-3.59-2.011-4.126 1.418-1.129 1.023-1.917 2.007-3.006 3.118-1.121.408-1.942.688-2.97.928-.208-.04-.619-.139-.622-.299a4 4 0 0 1 .045-.475"/>
  <path fill="#fefec1" d="M170.972 198.017c.005 2.37.01 4.74-.377 7.55-1.862 1.253-3.619 1.78-4.752 2.926-5.655 5.716-10.957 11.791-16.759 17.348-4.1 3.926-8.676 7.393-13.272 10.747-3.193 2.33-4.331 5.135-3.85 8.93.23 1.802.043 3.656-.047 5.685-.468.392-.843.586-1.219.78-.087-5.037-.175-10.074.197-15.73.679-2.827.898-5.036 1.501-7.248 1.952-.946 3.687-1.697 5.047-2.88 1.705-1.484 2.978-3.457 4.656-4.978 3.99-3.62 8.212-6.984 12.146-10.66 5.123-4.789 8.899-11.328 16.729-12.47"/>
  <path fill="#fb7a10" d="M177.86 324.56c-.429 9.822-5.962 16.292-13.76 21.459-3.69 2.444-7.991 4.788-10.27 8.308-2.233 3.45-4.343 3.29-7.71 2.792-3.034-2.388-5.68-4.82-7.994-7.641 2.113-.062 4.432 1.147 5.583.443 5.314-3.247 10.353-6.96 15.378-10.657 1.533-1.127 2.768-2.687 4.039-4.137 2.672-3.051 5.277-6.16 8.103-9.28.193-.035.52-.256.903-.151 2.165-.31 3.946-.723 5.728-1.137"/>
  <path fill="#fefea5" d="M214.468 172.838c1.861 3.12 3.722 6.24 5.535 9.755-.048.394-.158.487-.481.394-1.427-1.62-2.531-3.147-3.843-4.962-4.49 5.846-9.69 11.059-12.943 17.288-3.305 6.33-7.397 10.23-14.383 11.286-.564.085-.916 1.572-1.672 2.243a96 96 0 0 1-5.667-8.182c0-.769.001-1.208.445-1.65 4.623.27 8.592.336 11.17-4.045 1.767-3.002 4.006-5.744 6.185-8.481 2.12-2.663 4.441-5.163 6.655-7.75 2.192-2.562 4.36-5.145 6.8-7.537.908.668 1.553 1.154 2.199 1.641"/>
  <path fill="#fefeb3" d="M212.009 171.016c-2.18 2.573-4.348 5.156-6.54 7.717-2.214 2.588-4.536 5.088-6.655 7.75-2.179 2.738-4.418 5.48-6.185 8.482-2.578 4.38-6.547 4.315-11.134 3.675 1.46-6.318 3.674-12.025 9.664-15.186.568-.3 1.156-.753 1.48-1.29 2.95-4.875 5.726-9.864 8.857-14.619.618-.939 2.512-1.168 3.875-1.447 1.167-.239 2.416-.08 3.944-.096h1.576s.17.39.153.984c.31 1.74.637 2.885.965 4.03"/>
  <path fill="#fea912" d="M135.856 346.292c-1.294-2.522-2.588-5.045-3.499-7.988 1.271-2.568 2.453-4.757-.523-6.678-.036-.73-.007-1.15.401-1.623 2.772-1.141 5.377-1.917 7.52-3.373 7.377-5.012 14.576-10.285 21.876-15.41 3.187-2.236 6.367-3.263 9.178 1.174.035 2.812-.012 5.183-.393 7.481-1.954-2.572-3.485-3.7-6.584-1.492-7.394 5.268-15.414 9.7-22.54 15.286-3.625 2.842-7.72 6.68-5.436 12.623"/>
  <path fill="#fefea5" d="M130.542 252.366c.53-.577.905-.771 1.714-1.22 1.297-1.413 2.057-2.67 3.045-3.713 4.036-4.261 7.508-9.535 12.385-12.4 5.856-3.44 9.49-8.521 12.302-13.799 2.715-5.095 5.916-6.625 10.99-6.226.01.745.022 1.49.027 3.047-.021 2.86-.036 4.908-.463 6.952-3.979-.426-6.49.864-8.949 3.688-4.52 5.194-9.63 9.878-14.538 14.73-5.276 5.217-10.601 10.383-15.965 15.286a28 28 0 0 0-.703-1.836c0-1.376 0-2.751.155-4.509"/>
  <path fill="#fefec1" d="M209 166c-1.213.017-2.462-.141-3.63.098-1.362.279-3.256.508-3.874 1.447-3.131 4.755-5.906 9.744-8.857 14.62-.324.536-.912.99-1.48 1.29-5.99 3.16-8.205 8.867-10.108 15.188-.036.81-.037 1.248-.041 2.38-.006 1.418-.008 2.144-.357 2.827-1.227-1.938-2.106-3.833-2.985-5.728.164-.885.43-1.765.473-2.656.113-2.42-.809-5.51.352-7.154 4.86-6.881 10.466-13.23 15.512-19.988 1.922-2.574 3.074-5.724 4.575-8.612 1.559-2.999 3.164-3.628 5.367-.433.784 1.137 2.3 1.768 3.842 2.644.696.007.974.132 1.217 1.022.014 1.44.004 2.247-.006 3.055"/>
  <path fill="#fdfd88" d="M220.024 182.963c3.646 4.778 7.225 9.578 10.853 14.741.051.362.011.4-.295.344-1.065-.39-1.824-.725-2.726-1.378-2.71-2.875-5.276-5.43-7.337-7.484-3.743 4.19-6.493 7.316-9.296 10.395-4.664 5.124-9.001 10.625-14.172 15.178-3.428 3.018-3.368 4.785-.059 7.68.227 2.767.449 5.096.398 7.182-2.76-4.652-5.246-9.063-7.416-13.693 1.875-2.739 2.872-6.048 5.098-7.622 5.989-4.236 13.12-7.092 14.657-15.538.212-1.168 1.293-2.328 2.25-3.18 2.54-2.26 5.233-4.35 7.866-6.508 0 0 .11-.093.179-.117"/>
  <path fill="#fe8d10" d="M171.036 325.881c-2.633 3.086-5.238 6.195-7.91 9.246-1.27 1.45-2.506 3.01-4.039 4.137-5.025 3.697-10.064 7.41-15.378 10.657-1.151.704-3.47-.505-5.625-.797-.714.061-.969-.073-1.135-1.01.626-2.05.854-4.011 1.931-4.777 7.527-5.354 15.523-10.092 22.74-15.82 3.075-2.442 5.639-3.476 9.295-2.338.08.226.12.702.12.702"/>
  <path fill="#fe9b12" d="M170.835 324.953c-3.576-.912-6.14.122-9.216 2.564-7.216 5.728-15.212 10.466-22.739 15.82-1.077.766-1.305 2.727-1.954 4.552-.414-.041-.799-.499-1.127-1.276-2.227-6.264 1.868-10.102 5.493-12.944 7.126-5.586 15.146-10.018 22.54-15.286 3.1-2.208 4.63-1.08 6.671 1.638.422.217.673.441.74.89.073 1.054.081 1.66-.04 2.544a14 14 0 0 0-.368 1.498"/>
  <path fill="#feb515" d="M393.012 179.726c-.464 3.517-.953 6.604-1.9 9.69-.988-.184-1.52-.367-2.081-.827-.517-.755-1.003-1.234-1.591-2.062-.8-1.75-1.498-3.151-2.351-4.847-1.481-1.402-2.807-2.51-3.747-3.643 1.762-.923 3.142-1.814 4.512-2.72 1.654-1.094 3.3-2.2 5.064-3.087.415.592.714.97 1.013 1.347.352 1.906.704 3.811 1.081 6.149"/>
  <path fill="#ebd552" d="M316.088 145.145c-4.573 2.544-9.7 4.452-13.564 7.811-3.84 3.339-6.411 8.137-9.534 12.661.005.366-.01.354-.328.403-.779.688-1.239 1.327-1.994 2.115-1.716 1.423-3.137 2.697-4.6 3.931l-.123-.119c6.977-12.161 13.002-25.322 29.635-27.543.448.28.508.74.508.74"/>
  <path fill="#c35b33" d="M267.667 342.365c-5.67-8.62-11.18-17.391-16.783-26.103-1.23-1.912-2.79-3.614-4.56-5.363-.361.05-.39.037-.332-.316.13-.825.2-1.296.602-1.695 2.335 2.435 4.339 4.798 6.5 7.46 2.02 2.446 3.881 4.594 5.773 7.123.598 1.878 1.024 3.45 1.763 4.858 2.407 4.58 4.93 9.1 7.407 13.644 0 0-.246.263-.37.392"/>
  <path fill="#ebd552" d="M392.041 173.314c-.41-.115-.708-.492-1.106-1.458-2.049-5.013-3.999-9.437-5.983-14.204-2.343-2.781-4.651-5.22-7.126-7.901-.716-.418-1.267-.594-1.822-.76-.004.009.01-.006-.16-.247-.727-.395-1.283-.55-2.212-.719-1.12-.033-1.867-.051-2.614-.07a164 164 0 0 1-2.835-2.568c7.358-.237 13.648 2.945 17.179 9.338 3.114 5.638 4.59 12.182 6.68 18.589M260.829 208.84c3.438-5.377 6.833-10.783 10.33-16.122 2.979-4.55 6.075-9.023 9.509-13.598.39-.067.569.102.507.441-.11 1.032-.16 1.726-.503 2.584-2.452 3.37-4.61 6.578-7.019 10.006-1.75 2.743-3.251 5.266-5.046 7.948-2.097 2.713-3.898 5.265-5.944 7.94-.704.412-1.164.7-1.678.941-.053-.046-.156-.14-.156-.14m-12.817 16.1c.095.363.046.679.008.879-.04.2-.122.28-.447.194a131 131 0 0 1-7.561-9.356c-1.015-1.44-1.984-2.556-2.961-4.056-.805-2.478-1.602-4.57-2.381-6.842.017-.178-.042-.53.04-.579.081-.05.245-.147.245-.147 4.32 6.515 8.641 13.03 13.057 19.907"/>
  <path fill="#fefe95" d="M316.4 145.13c-.312.015-.372-.447-.433-.671 16.845-.23 33.75-.236 50.875.139-2.162.413-4.542.447-7.77.446a113 113 0 0 0-4.103.066c-6.004-.006-12.009-.012-18.946-.054-6.642.018-12.35.072-18.06.125a32 32 0 0 0-1.563-.05"/>
  <path fill="#c35b33" d="M216.354 349.093c-.344-.088-.36-.292-.239-1.06.731-1.376 1.324-2.188 2.154-3.172.431-.713.626-1.254 1.108-1.962 2.669-3.045 5.049-5.924 7.693-8.962.804-.765 1.344-1.371 1.944-1.92l.18.174c-4.172 5.596-8.343 11.192-12.84 16.902"/>
  <path fill="#fefedb" d="M132.01 229.007c-.219 2.21-.438 4.419-.957 6.804-.382-5.19-.464-10.556-.195-16.373.616-.444.88-.439 1.145.018.004 3.486.005 6.519.007 9.551"/>
  <path fill="#c35b33" d="M235.825 323.816c-2.045 2.653-4.09 5.306-6.383 8.167-.249.208-.368.092-.297-.256.34-1.138.61-1.928.908-3.044.024-.762.02-1.197.01-1.628-.007.004.021.01.36-.035 2.017-1.11 3.695-2.172 5.382-3.228.008.008.02.024.02.024m10.132-12.885c-2.307 3.042-4.608 6.1-7.293 9.238-.384.08-.673-.175-.658-.53.042-1.062.07-1.768.436-2.542 2.724-2.099 5.108-4.13 7.492-6.161 0 0 .029.012.023-.005"/>
  <path fill="#ebd552" d="M280.968 178.968c1.377-2.335 2.843-4.584 4.644-6.927.333-.094.415-.015.38.367-1.608 2.526-3.181 4.67-4.755 6.814z"/>
  <path fill="#feb515" d="M131 335.215c.275-1.112.53-1.877.843-2.96 2.967 1.292 1.785 3.48.59 5.683-.689-.755-1.071-1.566-1.433-2.723"/>
  <path fill="#fefec1" d="M212.27 171.197c-.589-1.326-.916-2.472-1.225-3.998 1.106 1.383 2.194 3.147 3.353 5.275-.576-.123-1.221-.61-2.128-1.277"/>
  <path fill="#fefee9" d="M132.002 219.002c-.264-.003-.528-.008-.99-.007-.29-.754-.38-1.515-.329-2.64.484-.15.824.06 1.243.794.077.966.077 1.41.076 1.853"/>
  <path fill="#fefecc" d="M209.315 166.002c-.305-.81-.295-1.617-.257-2.828.657.455 1.287 1.314 1.875 2.5-.462.328-.882.33-1.618.328"/>
  <path fill="#c35b33" d="M238.416 320.385c-.58 1.148-1.298 2.158-2.303 3.3-.288.131-.3.115-.217-.198.753-1.372 1.424-2.433 2.095-3.493 0 0 .289.255.425.391"/>
  <path fill="#fdfd88" d="M230.948 198.048c.678.763 1.336 1.544 1.997 2.668.002.341-.058.404-.372.383-.735-.043-1.156-.065-1.579-.45a162 162 0 0 0-.106-2.545z"/>
  <path fill="#ebd552" d="M233.94 202.287c.254.735.508 1.47.889 2.476.126.27-.038.368-.328.17-.482-.813-.673-1.429-.795-2.198.07-.153.235-.448.235-.448m27.079 8.783a44 44 0 0 1-1.241-.113c-.126-.638.161-1.228.75-1.968.3-.15.403-.055.453.331.046.84.042 1.295.038 1.75"/>
  <path fill="#fdfd88" d="M233.88 202.01c.06.277-.104.572-.358.558-.38-.491-.508-.97-.635-1.448l.09-.094c.3.215.57.461.902.985"/>
  <path fill="#fefee9" d="M185.747 144.118c.24.087-.111.418-.111.418s-.441-.092-.53-.232c.074-.185.238-.23.641-.186"/>
  <path fill="#fefecc" d="M132.003 219.456c0-.897 0-1.34.003-2.116 3.826-.061 7.022-.326 8.68-4.912.584-1.614 4.037-1.977 5.69-3.458 5.244-4.703 10.158-9.775 15.43-14.445 1.313-1.164 3.805-2.245 5.19-1.758 1.648.581 2.688 2.893 3.984 4.852-7.838 1.54-11.614 8.08-16.737 12.868-3.934 3.676-8.157 7.04-12.146 10.66-1.678 1.521-2.951 3.494-4.656 4.978-1.36 1.183-3.095 1.934-5.047 2.88-.386-3.03-.387-6.063-.39-9.55"/>
  <path fill="#fefeb3" d="M170.99 214.558c-5.086.05-8.287 1.581-11.002 6.676-2.811 5.278-6.446 10.358-12.302 13.799-4.877 2.865-8.35 8.139-12.385 12.4-.988 1.043-1.748 2.3-2.953 3.515-.343-1.774-.157-3.628-.386-5.43-.481-3.795.657-6.6 3.85-8.93 4.596-3.354 9.173-6.821 13.272-10.747 5.802-5.557 11.104-11.632 16.76-17.348 1.132-1.145 2.889-1.673 4.742-2.481.394 2.701.405 5.398.404 8.546m.65 3.419c.26 2.366.311 4.74.162 7.707-.2.593-.499.963-.59.554-.145-.681-.201-.955-.257-1.228.014-2.047.029-4.095.051-6.582.009-.44.426-.443.634-.45"/>
  <path fill="#fed21f" d="M377.993 149.994c2.308 2.439 4.616 4.877 6.554 7.67-2.898.871-6.837.574-7.69 2.055-2.674 4.644-9.598 6.497-9.28 13.284-5.87.989-11.304 2.035-16.76 2.953-9.597 1.614-18.821 4.657-29.085 1.915-5.161-1.378-11.431 1.673-17.242 2.367-5.534.66-11.271 2.748-16.32-1.556 2.72-1.427 5.256-2.57 7.822-3.643 2.22-.93 4.472-1.78 6.71-2.666 9.012.33 18.393 2.446 27.591-1.942.43-.205.997-.347 1.447-.257 10.952 2.204 19.567-3.688 28.456-8.373 2.589-1.364 4.504-3.968 7.04-5.477 2.951-1.756 4.32-3.946 3.765-7.32l.012-.786c.752-.244 1.499-.226 2.793.043a26 26 0 0 0 2.208.724s-.014.015.154.253c.72.41 1.273.584 1.825.756"/>
  <path fill="#fed524" d="M370.665 149.056c.891 3.322-.478 5.512-3.428 7.268-2.537 1.51-4.452 4.113-7.04 5.477-8.89 4.685-17.505 10.577-28.457 8.373-.45-.09-1.016.052-1.447.257-9.198 4.388-18.579 2.273-27.59 1.942-2.239.885-4.491 1.737-6.711 2.666a173 173 0 0 0-8.165 3.683c-2.731 1.1-3.514 4.981-6.86 3.259.049-.694.098-1.388.208-2.42 1.636-2.483 3.21-4.627 4.859-7.113 1.497-1.616 2.918-2.89 4.96-4.351 1.075-.834 1.53-1.48 1.986-2.126 0 0 .015.012.003.013 5.162-1.328 10.305-3.62 15.516-3.783 10.884-.34 21.825.107 32.7.854 12.523.86 20.686-6.671 29.466-14"/>
  <path fill="#ebd552" d="M318.296 145.425c5.376-.297 11.085-.351 17.26-.35-5.331.234-11.13.414-17.26.35m36.908-.088c.85-.26 1.934-.294 3.423-.276-.794.203-1.991.353-3.423.276"/>
  <path fill="#fe540e" d="M392.026 214.997c.004 34.992.27 69.987-.134 104.974-.135 11.67-2.652 23.128-11.442 31.923-4.865 4.868-11.008 7.807-17.804 8.027-12.913.419-25.849.15-39.278-.22-2.746-1.16-4.947-2.102-7.242-2.662-4.034-.985-8.126-1.736-13.34-2.823-2.704 2.763-6.197.245-9.362-2.208-1.17-.907-2.207-3.238-1.843-4.497.328-1.136 2.565-2.002 4.115-2.441 2.653-.752 5.457-.957 8.142-1.615 2.769-.679 5.426-2.072 8.213-2.356 4.775-.486 10.146.924 14.29-.805 5.06-2.111 9.765-3.13 15.1-2.787 1.256.08 3.607-1.353 3.774-2.367 1.107-6.694 6.963-8.767 11.198-12.5 1.956-1.725 3.857-4.212 4.423-6.666 1.178-5.109 1.66-10.41 2.036-15.661.388-5.413-.462-10.977 2.78-15.906.388-.59.148-1.608.16-2.428.102-6.852-.017-13.716.357-20.552.302-5.514 1.37-10.983 1.753-16.496.192-2.767-.404-5.587-.599-8.386-.068-.972-.354-2.15.062-2.898 2.496-4.482 4.742-9.216 7.957-13.141 1.668-2.038 5.068-2.857 7.841-3.736 2.849-.903 5.887-1.207 8.843-1.773"/>
  <path fill="#fe4f0d" d="M392.037 214.539c-2.967 1.024-6.005 1.328-8.854 2.231-2.773.879-6.173 1.698-7.841 3.736-3.215 3.925-5.46 8.659-7.957 13.141-.416.748-.13 1.926-.062 2.898.195 2.8.791 5.619.599 8.386-.384 5.513-1.451 10.982-1.753 16.496-.374 6.836-.255 13.7-.357 20.552-.012.82.228 1.838-.16 2.428-3.242 4.93-2.392 10.493-2.78 15.906-.377 5.25-.858 10.552-2.036 15.66-.566 2.455-2.467 4.942-4.423 6.666-4.235 3.734-10.091 5.807-11.198 12.5-.167 1.015-2.518 2.448-3.774 2.368-5.335-.344-10.04.676-15.1 2.787-4.144 1.729-9.515.319-14.29.805-2.787.284-5.444 1.677-8.213 2.356-2.685.658-5.489.863-8.142 1.615-1.55.439-3.787 1.305-4.115 2.44-.364 1.26.673 3.591 1.843 4.498 3.165 2.453 6.658 4.97 9.362 2.208 5.214 1.087 9.306 1.838 13.34 2.823 2.295.56 4.496 1.503 6.81 2.651-14.195-.104-29.16 3.632-42.083-5.339-4.634-3.216-8.188-7.988-12.525-12.214a328 328 0 0 1-7.698-13.808c-.74-1.407-1.165-2.98-1.376-4.882 3.48-1.138 6.702-1.587 9.704-2.655 8.929-3.178 16.953-7.816 23.916-16.588 2.821 3.32 5.33 6.557 8.14 9.508 3.987 4.187 5.932 10.862 13.412 11.138.194-.005.562.113.775.389 2.083 1.089 3.953 1.902 5.779 3.083-1.337 3.23.067 3.938 2.62 3.65 2.621-.294 5.249-.995 7.852-.902 6.175.22 10.957-1.594 13.611-7.605.97-2.197 2.617-4.125 3.392-6.37.667-1.937.315-4.202.8-6.23 1.113-4.649 3.106-9.176 3.585-13.871 1.09-10.683 1.658-21.43 2.09-32.164.235-5.837-.608-11.59.916-17.51 1.792-6.958-.796-14.664 4.15-21.3 3.726-4.997 6.248-10.877 9.77-16.048 3.096-4.549 12.01-7.768 15.77-6.66 2.032.6 4.274.485 6.42.692.031 3.36.062 6.718.08 10.535"/>
  <path fill="#fb4a10" d="M391.978 204c-2.168-.203-4.41-.088-6.442-.688-3.76-1.108-12.674 2.111-15.77 6.66-3.522 5.171-6.044 11.05-9.77 16.048-4.946 6.636-2.358 14.342-4.15 21.3-1.524 5.92-.681 11.673-.916 17.51-.432 10.734-1 21.481-2.09 32.164-.48 4.695-2.472 9.222-3.585 13.872-.485 2.027-.133 4.292-.8 6.229-.775 2.245-2.422 4.173-3.392 6.37-2.654 6.011-7.436 7.825-13.611 7.605-2.603-.093-5.23.608-7.852.903-2.553.287-3.957-.42-2.165-3.642 3.11-.367 5.781-.022 8.315-.464 3.935-.687 8.496-1.085 8.11-6.989 0-.013-.021-.032.335-.15 1.5-7.02 3.493-13.904 3.628-20.825.422-21.624.142-43.262.533-64.898 2.14-1.359 5.088-2.489 5.39-4.112.836-4.478 2.556-8.053 5.49-11.592 5.019-6.058 9.048-12.912 16.068-17.138 6.238-3.756 12.69-5.716 20.769-3.643-.35-3.33-.68-6.492-1.011-9.654.53.183 1.062.366 1.744.787.511 4.31.872 8.381 1.218 13.12-.017.84-.02 1.011-.022 1.183 0 0-.003.041-.024.045"/>
  <path fill="#fe4f0d" d="M392.172 203.871c-.168-.087-.165-.259-.151-.69.18-.079.366.088.502.288.03.044-.116.208-.35.402"/>
  <path fill="#fe5a0d" d="M183.984 360.555c-6.529-.06-13.04-.484-19.55-.907l-.667-1.252c1.314-1.088 2.47-2.513 3.966-3.207 8.354-3.874 13.096-10.422 15.543-19.178.95-3.4 2.498-6.168 1.1-10.099-.621-1.75 2.266-4.747 3.617-7.532 5.673.413 6.724 4.964 6.846 9.171.202 6.897-.12 13.883-1.117 20.7-.356 2.434-3.28 4.517-5.1 6.704-1.489 1.79-3.077 3.495-4.638 5.6"/>
  <path fill="#fd430e" d="M218.031 345.033c-.592.812-1.185 1.624-1.936 2.695-1.766 1.357-3.398 2.422-4.976 3.56-3.72 2.68-6.28 1.952-7.086-2.634-1.285-7.313-1.862-14.749-3.093-22.073-.556-3.31-1.579-6.67-3.088-9.655-1.672-3.307-3.812-6.19-.808-9.82.56-.677.477-1.888.59-3.245-.102-.392-.069-.389.321-.218.94.232 1.49.293 2.394.416.75.342 1.384.543 1.507.913 2.39 7.179 8.281 12.944 8.27 21.153-.004 2.168 1.22 4.437 2.236 6.483 1.243 2.5 2.416 4.741-.344 7.032-.446.37-.31 1.439-.443 2.185.851.148 1.704.289 2.553.446 1.292.239 2.582.49 3.874 1.073.01.788.02 1.239.03 1.69"/>
  <path fill="#f86914" d="M189.174 314.815c-.11-.214.036-.57.45-1.058.113.217-.041.567-.45 1.058"/>
  <path fill="#fea912" d="M261.052 211.412a40 40 0 0 1-.017-2.046c.464-.628.924-.915 2.066-1.297 2.895.303 6.437-.018 7.103 1.214 3.765 6.97 10.215 6.272 16.404 6.733 8.17.608 16.332 1.325 24.338 2.3-2.4 3.753-4.64 7.203-6.88 10.652-5.721-3.66-12.283-2.095-18.453-2.965-10.11-1.425-19.435-4.193-24.56-14.591"/>
  <path fill="#fc850e" d="M251.955 225.021c.788-.983 1.576-1.967 2.973-2.79 4.373 5.263 7.067 11.402 13.649 13.793 5.56 2.02 11.001 4.823 16.744 5.768 7.625 1.255 8.122 1.186 5.193 8.256-2.415.064-4.609.566-6.476-.003-7.067-2.155-14.028-4.658-21.32-7.163a377 377 0 0 1-3.745-1.837c-.01-.011-.035-.03-.037-.351-.651-1.091-1.3-1.86-1.979-2.633-.03-.002-.08-.034-.04-.421-1.628-4.465-3.295-8.542-4.962-12.619"/>
  <path fill="#fe8d10" d="M290.885 249.995c2.558-7.017 2.061-6.948-5.564-8.203-5.743-.945-11.185-3.748-16.744-5.768-6.582-2.391-9.276-8.53-13.308-13.833-.073-3.589 1.136-4.109 3.517-1.578 8.015 8.52 18.04 12.982 29.53 14.15 1.442.148 3.054-1.386 5.119-2.402 1.284 1.521 2.825 3.347 4.512 5.822.136 1.337.126 2.024.115 2.779 0 .067-.123.114-.335.22-.441.335-.609.602-.714.869-.002-.04.078-.039-.166.09-.419.446-.593.763-.776.99-.008-.09.174-.086-.122.072-.493.776-.69 1.394-.939 2.34-1.34 2.073-2.63 3.82-3.964 5.286-.083-.465-.122-.65-.161-.834"/>
  <path fill="#f86914" d="M251.654 225.149a82 82 0 0 1 4.981 12.366c-1.396-.706-2.47-1.676-3.6-2.968-1.08-1.74-2.103-3.158-3.111-4.86-.227-.76-.468-1.237-.745-2.027a36 36 0 0 0-.288-1.543c.82-.28 1.642-.56 2.763-.968"/>
  <path fill="#ebd552" d="M304.049 229.306c2.258-3.787 4.498-7.237 7.154-11.188 1.579-1.36 2.741-2.218 3.821-2.736-3.7 5.456-7.318 10.572-10.958 15.67l-.064-.055c.01-.451.02-.902.047-1.69m-4.104 8.631c1.124-2.275 2.247-4.55 3.713-6.883.344-.058.386-.021.38.346-1.341 2.451-2.675 4.535-4.03 6.6zm-1.883 2.957c.01-.688.021-1.375.046-2.403.418-.4.821-.459 1.531-.536.306-.018.347.025.337.347-.645 1.08-1.28 1.836-1.914 2.592m-49.379-14.818c.292.45.376.86.215 1.455-.497-.354-.749-.893-1-1.432l.125-.121c.042-.041.453.058.66.098"/>
  <path fill="#9b8f62" d="M171.204 323.455c.301.358.474.997.596 1.886-.051.25-.378.471-.571.506-.193.034-.233-.442-.314-.668 0-.632.08-1.038.289-1.724"/>
  <path fill="#fefe95" d="M189.974 215.928c-1.042-.748-1.766-1.717-2.64-3.094-.216-1.549-.282-2.688-.348-3.827.45-.836.803-2.323 1.367-2.408 6.986-1.057 11.078-4.957 14.383-11.286 3.254-6.23 8.454-11.442 12.943-17.288 1.312 1.815 2.416 3.342 3.843 4.962-2.31 2.251-5.003 4.341-7.544 6.602-.956.851-2.037 2.011-2.25 3.179-1.537 8.446-8.667 11.302-14.656 15.538-2.226 1.574-3.223 4.883-5.098 7.622"/>
  <path fill="#fefeb3" d="M186.68 208.842c.372 1.304.438 2.443.368 3.846-1.917-2.61-3.697-5.485-5.762-8.578-.284-.943-.282-1.669-.276-2.758 1.792 2.2 3.578 4.763 5.67 7.49"/>
  <path fill="#feb515" d="M132.235 330.003c-.43-1.992-.48-4.038-.102-6.566 2.239-2.431 3.779-4.762 5.907-6.258 7.133-5.013 14.424-9.809 21.76-14.521 3.408-2.189 7.099-3.412 11.012-.293.018 3.499-.034 6.543-.086 9.588-2.728-3.996-5.908-2.97-9.095-.732-7.3 5.124-14.5 10.397-21.876 15.409-2.143 1.456-4.748 2.232-7.52 3.373"/>
  <path fill="#9b8f62" d="M170.809 312.394c-.031-3.486.02-6.53.093-10.207.02-.631.27-.941.27-.941.11 6.208.22 12.416.167 18.92-.163.296-.414.072-.502-.073-.04-2.516.007-4.887-.028-7.7"/>
  <path fill="#fefe95" d="M170.542 225.007c.469.276.525.55.711 1.619.282 4.32.433 7.843.584 11.367-.027.71-.053 1.42-.382 2.48-.656.446-1.01.54-1.387.592-.025-.044-.083-.125-.077-.569.006-3.007.006-5.57.006-8.133l-1.447-.813c-2.53 1.664-5.108 3.259-7.58 5.004-5.468 3.86-7.137 11.763-14.534 13.67-.737.19-1.19 1.522-1.753 2.34-3.559 5.176-6.862 10.627-13.519 12.434a152 152 0 0 1-.076-5.576c5.366-5.614 10.691-10.78 15.967-15.997 4.908-4.852 10.018-9.536 14.538-14.73 2.459-2.824 4.97-4.114 8.949-3.688"/>
  <path fill="#fdfc6d" d="M202.982 238.997c-1.722-2.836-3.445-5.671-5.243-8.82a179 179 0 0 1-.741-8.139c.261-1.76.408-3.43.799-3.49 6.18-.934 8.193-7.422 13.079-9.768 6.378-3.062 7.874-13.075 17.123-11.792.759.335 1.518.67 2.583 1.06.34.783.375 1.51.149 2.872-2.044 1.22-4.328 1.305-5.51 2.489-2.616 2.621-4.286 6.25-7.056 8.641-4.595 3.967-9.728 7.319-14.691 10.848-1.338.952-4.204 1.861-4.11 2.361.442 2.33 1.677 4.509 2.637 7.137.334 2.463.658 4.532.981 6.6"/>
  <path fill="#fefd82" d="M227.856 196.67c-9.106-.965-10.602 9.048-16.98 12.11-4.886 2.346-6.9 8.834-13.079 9.768-.39.06-.538 1.73-.804 3.052-3.31-2.056-3.37-3.823.058-6.841 5.17-4.553 9.508-10.054 14.172-15.178 2.803-3.079 5.553-6.206 9.296-10.395 2.061 2.053 4.628 4.61 7.337 7.484"/>
  <path fill="#fd430e" d="M389.03 188.59c.363 3.438.694 6.6 1.043 9.93-8.08-2.073-14.531-.113-20.77 3.643-7.02 4.226-11.048 11.08-16.068 17.138-2.933 3.539-4.653 7.114-5.488 11.592-.303 1.623-3.251 2.753-5.653 3.838-.474-9.093-.286-17.914.286-26.734 1.805-.645 3.43-1.037 4.608-1.984 3.527-2.84 6.652-6.217 10.342-8.803 9.03-6.328 18.812-10.784 30.213-10.334.485.479.971.958 1.488 1.713"/>
  <path fill="#d13a19" d="M341.995 207.996c-.187 8.821-.375 17.642-.3 26.738.27 21.907.55 43.545.128 65.169-.135 6.92-2.128 13.805-3.65 20.444.32-6.326 1.581-12.388 1.616-18.457.17-29.626.2-59.256-.15-88.88-.099-8.35-.348-17.003-5.789-24.441a8.7 8.7 0 0 1 1.046-1.743c7.101-5.734 14.644-9.922 23.454-10.813 5.493-.556 11.093-.064 16.815.035.171.078.546.064.761.292.817.326 1.42.424 2.215.62.192.097.62.15.826.39.81.378 1.413.517 2.01.668l-.021.044c1.326 1.108 2.652 2.216 3.754 3.626-2.084-.004-3.934-.415-5.806-.595-2.89-.278-6.017-1.17-8.642-.412-4.356 1.26-8.333 3.77-12.576 5.491-9.775 3.968-15.522 11.844-15.69 21.824"/>
  <path fill="#f43a0e" d="M342.38 207.997c-.216-9.98 5.53-17.857 15.306-21.825 4.243-1.722 8.22-4.232 12.576-5.49 2.625-.76 5.752.133 8.642.411 1.872.18 3.722.59 5.961.89 1.077 1.393 1.774 2.794 2.575 4.544-11.298-.1-21.08 4.355-30.11 10.683-3.69 2.586-6.815 5.964-10.342 8.803-1.177.947-2.803 1.339-4.608 1.984"/>
  <path fill="#fdc51c" d="M378.761 177.11s-.428-.053-.827-.38c-1.008-.423-1.615-.52-2.223-.618 0 0-.375.014-.767-.34-2.575-1.16-4.758-1.965-6.94-2.77-.745-6.786 6.179-8.639 8.853-13.283.853-1.48 4.792-1.184 7.724-1.713 2.355 4.413 4.305 8.837 6.239 13.636-1.666 1.474-3.312 2.58-4.966 3.675-1.37.906-2.75 1.797-4.512 2.72-.386.025-.373-.005-.557-.275-.797-.397-1.41-.524-2.024-.652"/>
  <path fill="#fefd82" d="M131.105 265.453c6.716-2.262 10.02-7.713 13.578-12.89.563-.817 1.016-2.15 1.753-2.34 7.397-1.906 9.066-9.81 14.534-13.67 2.472-1.744 5.05-3.34 7.58-5.003l1.447.813c0 2.563 0 5.126-.405 8.155-2.132 1.144-4.25 1.397-5.517 2.57-6.521 6.048-12.89 12.264-19.18 18.553-4.678 4.677-9.153 9.554-13.718 14.342a595 595 0 0 1-.072-10.53"/>
  <path fill="#fdc51c" d="M171.218 300.798c-.045.448-.297.758-.387.935-3.932-2.487-7.623-1.264-11.03.925-7.337 4.712-14.628 9.508-21.761 14.521-2.128 1.496-3.668 3.827-5.861 5.824-.424-2.324-.464-4.697-.094-7.566 3.445-3.698 6.086-7.45 9.61-9.967 5.03-3.595 10.668-6.355 16.118-9.342 4.325-2.371 8.754-4.714 13.194-.13.086 1.45.172 2.902.211 4.8"/>
  <path fill="#fedc25" d="M171.302 283.93c-.006 1.419-.013 2.838-.487 4.61-1.836-1.301-3.205-2.955-4.732-4.8-8.311 5.738-16.21 11.021-23.91 16.583-3.663 2.646-6.944 5.821-10.398 8.757-.192-1.136-.383-2.271-.259-3.792.71-1.688 1.104-2.991 1.498-4.623.003-.767.005-1.205.373-1.654 3.645-2.123 7.074-4.038 10.174-6.387 7.422-5.624 14.689-11.452 21.638-16.898 2.37 1.581 3.697 2.466 5.085 3.728.38 1.743.7 3.109 1.018 4.475"/>
  <path fill="#fdfc6d" d="M131.116 276.42c4.626-5.225 9.101-10.102 13.778-14.779 6.29-6.289 12.66-12.505 19.181-18.552 1.266-1.174 3.385-1.427 5.51-2.127.4-.022.458.06.467.507-.079 3.471-.166 6.494-.6 9.512-1.538-.883-2.73-1.76-3.803-2.55-2.993 3.14-5.676 6.31-8.726 9.076-5.858 5.308-12.104 10.196-17.83 15.636-3.022 2.871-5.287 6.539-7.894 9.846a219 219 0 0 1-.083-6.57"/>
  <path fill="#fed21f" d="M131.723 309.5c3.506-3.356 6.787-6.531 10.45-9.177 7.7-5.562 15.599-10.845 23.91-16.583 1.527 1.845 2.896 3.499 4.61 5.209.408 2.102.471 4.149.424 6.622-4.55-4.157-8.98-1.814-13.304.557-5.45 2.987-11.089 5.747-16.119 9.342-3.523 2.518-6.164 6.27-9.557 9.527-.394-1.654-.43-3.366-.414-5.498"/>
  <path fill="#feef43" d="M133.022 299.021c-.003.439-.005.877-.312 1.644-.709.32-1.114.312-1.518.304.287-3.733.575-7.467 1.203-11.776 1.093-1.784 1.846-2.991 2.966-4.237 2.738-1.138 5.541-1.756 7.395-3.427 5.706-5.143 11.019-10.721 16.546-16.067 3.095-2.993 6.365-5.726 11.198-3.912-.067 2.481-.14 4.527-.655 6.53-2.719.58-5.455.602-7.2 1.928-8.345 6.34-17.359 11.965-23.849 20.453-2.087 2.73-3.858 5.7-5.774 8.56"/>
  <path fill="#fefa5c" d="M134.994 284.994c-.753 1.208-1.506 2.415-2.529 3.78-.643-1.564-1.016-3.284-1.327-5.394 2.668-3.698 4.933-7.366 7.955-10.237 5.726-5.44 11.972-10.328 17.83-15.636 3.05-2.765 5.733-5.936 8.726-9.076a86 86 0 0 1 3.862 2.975c.448 2.145.49 3.86.17 5.573-1.597-.855-2.83-1.709-4.336-2.75-9.567 9.212-19.215 18.468-28.795 27.794-.761.741-1.049 1.97-1.556 2.97"/>
  <path fill="#fee337" d="M131.127 301.368c.47-.39.874-.383 1.583-.374-.09 1.303-.484 2.606-1.206 3.948-.365-1.033-.403-2.104-.377-3.574"/>
  <path fill="#fedc25" d="M292.662 166.02c-.138.597-.593 1.243-1.374 1.928q.204-.898 1.374-1.928"/>
  <path fill="#f95d14" d="M314.233 324.856c-7.287-.282-9.232-6.957-13.219-11.144-2.81-2.951-5.319-6.189-8.14-9.508-6.963 8.772-14.987 13.41-23.916 16.588-3.002 1.068-6.224 1.517-9.733 2.274-2.25-2.124-4.111-4.272-5.758-6.774 8.479-5.658 16.848-10.804 24.957-16.332 3.902-2.66 7.313-6.04 11.202-8.882 2.646 3.942 4.969 7.716 7.44 11.391 3.754 5.582 7.5 11.176 11.477 16.598 1.584 2.159 3.775 3.872 5.69 5.789"/>
  <path fill="#dc2511" d="M215.873 277.58c.829-1.43 1.657-2.86 3.13-4.43 1.464.492 2.402 1.017 3.084 1.773a257 257 0 0 1 8.937 10.434c1 1.114 1.955 1.896 2.96 3.038 1.653 2.53 3.254 4.7 4.926 7.183 1.043 1.708 2.016 3.102 3.14 4.802 1.395 2.422 2.639 4.537 3.918 6.955.121.694.209 1.087.296 1.48-.072.472-.143.943-.272 1.768-2.442 2.384-4.826 4.415-7.704 6.183-7.8-13.238-15.108-26.212-22.415-39.186"/>
  <path fill="#fd6d12" d="M246.594 308.888c-.417-.466-.505-.859-.223-1.612 3.09-.87 6.516-.506 8.416-2.036 9.301-7.49 18.195-15.484 27.523-23.308.48-.033.671-.059.84-.05-.021.036-.08-.022.014.216.36.444.625.648.863.877-.027.024.028-.026.1.175.198.468.394.666.777 1.028.144.407.172.579.18 1.11.673 1.097 1.365 1.836 2.055 2.607-.003.031-.058 0 .008.213.195.502.405.703.85 1.093.56.738.967 1.201 1.374 1.665-3.634 3.054-7.045 6.434-10.947 9.094-8.109 5.528-16.478 10.674-25.114 16.033-2.377-2.307-4.381-4.67-6.716-7.105"/>
  <path fill="#fedc25" d="M375.843 148.744q-.573.123-1.663-.468.573-.123 1.663.468m1.983 1.007q-.579.106-1.653-.522.579-.106 1.653.522"/>
  <path fill="#fcc920" d="M367.576 173.003c2.61.804 4.793 1.609 7.197 2.69-5.33.256-10.93-.236-16.423.32-8.81.891-16.353 5.08-23.764 10.855-1.211 1.283-1.852 2.273-2.52 3.213-.027-.048.069.007-.289.01-.837.964-1.315 1.926-1.785 2.899.01.01-.014-.002-.25.11-.391.411-.548.713-.703.974.003-.04.076-.008-.275-.047-.82-.035-1.29-.032-1.923-.345-1.044-1.047-1.892-2.366-2.807-2.414-5.671-.303-11.37-.618-17.035-.368-10.277.454-20.536 1.324-30.807 1.937-.742.044-1.525-.589-2.288-.907 2.158-3.207 4.316-6.414 6.768-9.785 3.641 1.558 4.424-2.323 6.984-3.108 5.563 3.95 11.3 1.862 16.834 1.2 5.81-.693 12.08-3.744 17.242-2.366 10.264 2.742 19.488-.301 29.085-1.915 5.456-.918 10.89-1.964 16.76-2.953"/>
  <path fill="#fdc01b" d="M273.653 192.15c1.014.098 1.797.731 2.539.687 10.271-.613 20.53-1.483 30.807-1.937 5.665-.25 11.364.065 17.035.368.915.048 1.763 1.367 2.797 2.797.173 1.464.192 2.229.191 2.965-.02-.029.039.01-.346-.006-1.149 1.325-1.914 2.666-2.683 3.991-.006-.016.027-.024-.301-.033-.765.015-1.201.04-1.903.066-.436.642-.607 1.284-1.033 2.13-1.398 1.773-2.542 3.341-3.706 4.486.32-4.008-1.078-5.324-4.714-4.36-1.33.352-2.866-.138-4.306-.113-2.974.053-6.045-.253-8.901.379-10.552 2.335-20.774 2.793-30.228-3.631 1.5-2.522 3.002-5.045 4.752-7.788"/>
  <path fill="#feb515" d="M268.607 200.1c9.748 6.263 19.97 5.805 30.522 3.47 2.856-.632 5.927-.326 8.9-.379 1.44-.025 2.976.465 4.307.112 3.636-.963 5.033.353 4.667 4.72-.673 2.876-1.32 4.968-1.962 7.029.004-.033.065-.01.065-.01-1.162.858-2.324 1.716-3.744 2.77-8.422-.471-16.584-1.188-24.754-1.796-6.19-.461-12.639.236-16.404-6.733-.666-1.232-4.208-.911-6.86-1.337 1.365-2.582 3.166-5.134 5.263-7.847"/>
  <path fill="#fee337" d="M247.573 226.013c.576.626.828 1.165 1.36 1.832.523.605.764 1.083.659 1.85-2.236.948-4.311 1.302-5.98 2.322-7.01 4.286-13.78 8.974-20.868 13.118-5.512 3.222-7.34 6.652-6.094 12.874l-1.567-.029c-.312-.091-.55-.278-.537-1.044-.398-2.122-.855-3.813-1.566-5.39-1.6-3.544-3.326-7.032-4.696-10.691 10.795-8.057 21.285-15.964 31.774-23.872 2.397 2.981 4.793 5.962 7.515 9.03"/>
  <path fill="#fefa5c" d="M201.991 232c-.95-2.232-2.185-4.411-2.626-6.74-.095-.5 2.77-1.41 4.109-2.362 4.963-3.53 10.096-6.881 14.691-10.848 2.77-2.39 4.44-6.02 7.056-8.641 1.182-1.184 3.466-1.27 5.512-2.125.684-.25 1.105-.228 1.84-.185.441.5.569.978.88 1.623.375.782.566 1.398.966 2.26.209.247.268.6-.103.801-1.805 1.08-3.762 1.623-4.576 2.897-2.781 4.351-6.155 7.493-10.988 9.817-4.294 2.066-7.684 6.013-11.472 9.133-1.765 1.454-3.526 2.914-5.289 4.37"/>
  <path fill="#fbf152" d="M202.001 232.396c1.753-1.852 3.514-3.312 5.28-4.766 3.787-3.12 7.177-7.067 11.471-9.133 4.833-2.324 8.207-5.466 10.988-9.817.814-1.274 2.771-1.817 4.558-2.72 1.15 2.07 1.948 4.163 2.366 6.651-4.332 1.832-8.753 2.606-9.995 7.697-.162.664-1.102 1.158-1.72 1.686-6.638 5.675-13.284 11.34-20.266 17.002-.788.003-1.237.013-1.687.022 0 0 .001-.014-.006-.018a269 269 0 0 1-.989-6.604m2.484 2.185s-.06-.103 0 0"/>
  <path fill="#feef43" d="M205.021 239.003c6.644-5.668 13.29-11.334 19.929-17.01.617-.527 1.557-1.021 1.72-1.685 1.24-5.091 5.662-5.865 10.002-7.312 1.356 1.105 2.325 2.22 3.34 3.661a937 937 0 0 1-32.095 24.197c-1.408.115-2.143.082-2.882-.267z"/>
  <path fill="#f43a0e" d="M230.024 329.01c-.27.789-.539 1.579-.94 2.659-.67.897-1.21 1.503-2.384 2.233-2.235-.799-4.595-1.34-5.288-2.719-1.634-3.25-2.297-6.973-3.684-10.369-1.473-3.609-2.776-7.503-5.148-10.48-3.546-4.448-7.582-8.434-8.579-14.69a80 80 0 0 0-.074-1.708s.076.03.273-.079c.376-.396.553-.683.73-.97 0 0-.078.05.18-.09.445-.674.633-1.207.821-1.74 0 0-.003-.115.264-.223.525-.314.665-.582.686-.912 0 0-.02-.048.34-.046 1.767.565 3.916.73 4.463 1.753 6.274 11.737 12.305 23.604 18.4 35.436 0 0-.028-.006-.259.117-.088.69.056 1.259.2 1.827"/>
  <path fill="#fb3e13" d="M204.004 295.985c.994 5.915 5.03 9.901 8.576 14.35 2.372 2.976 3.675 6.87 5.148 10.48 1.387 3.395 2.05 7.118 3.684 10.368.693 1.38 3.053 1.92 5.025 2.878-2.011 2.914-4.391 5.793-7.332 8.816-.742.14-.923.134-1.104.13-1.291-.247-2.58-.497-3.873-.736-.85-.157-1.702-.298-2.553-.446.133-.746-.003-1.816.443-2.185 2.76-2.29 1.587-4.532.344-7.032-1.017-2.046-2.24-4.315-2.236-6.483.011-8.209-5.88-13.974-8.27-21.153-.123-.37-.756-.57-1.499-1.299-.042-2.203.261-3.957.565-5.711 0 0 .041.027.267-.096.4-.4.573-.679.746-.957 0 0-.01.086.255-.018.78-.371 1.297-.639 1.814-.906"/>
  <path fill="#f74f14" d="M218.002 343.344c.18-.333.361-.328.815-.3.078.563-.117 1.104-.548 1.817-.247-.278-.256-.729-.267-1.517"/>
  <path fill="#ec2d12" d="M230.423 327.02c-6.434-11.787-12.465-23.654-18.74-35.391-.546-1.023-2.695-1.188-4.453-1.778 2.448-3.978 5.248-7.93 8.345-12.077 7.605 12.78 14.912 25.754 22.373 39.06.128 1.037.1 1.743.058 2.805-.686 1.415-1.357 2.476-2.118 3.84-1.77 1.369-3.448 2.432-5.465 3.54m-.37 1.664c-.172-.242-.316-.81-.222-1.506.241.309.246.744.222 1.506"/>
  <path fill="#fcc920" d="M253.09 234.869c1.074.97 2.15 1.94 3.506 3.034.281.124.332.156.342.509.674 1.103 1.337 1.853 2 2.603 0 0 .025.019.059.377.437 1.438.84 2.52.887 3.488-4.032.966-8.01 1.478-11.318 3.244-6.083 3.245-11.6 7.55-17.68 10.799-4.664 2.49-8.929 4.756-8.73 10.779-.33-.424-.576-.576-.89-.619-.114-.33-.23-.662-.341-1.634-.393-1.22-.79-1.8-1.186-2.379 0 0 .162.003.097-.182-.304-.438-.544-.691-.783-.944 0 0-.234-.161-.148-.664a42 42 0 0 1 1.225-3.595c.79-1.794 1.022-3.844 2.14-4.624 7.242-5.051 14.664-9.844 22.054-14.682 2.887-1.89 5.842-3.676 8.766-5.51"/>
  <path fill="#d13a19" d="M221.104 269.368c.476-.242.721-.09 1.125.651 1.34 1.828 2.456 3.177 3.681 4.792 1.049 1.403 1.986 2.54 2.958 4.015.888 2.13 1.741 3.921 2.473 5.834l-.363.364c-2.957-3.373-5.887-6.77-8.89-10.1-.683-.757-1.62-1.282-2.816-1.936.307-1.127.987-2.23 1.832-3.62"/>
  <path fill="#fbf152" d="M205.04 240.903c.734.033 1.47.066 2.571.1 2.043 3.511 3.769 6.999 5.369 10.544.711 1.576 1.168 3.267 1.529 5.161-3.444-4.859-6.675-9.973-9.858-15.417.05-.329.388-.388.388-.388"/>
  <path fill="#9b8f62" d="M172.049 237.718c-.363-3.249-.514-6.773-.705-10.684-.04-.387.258-.757.444-.906.281 3.673.377 7.494.26 11.59"/>
  <path fill="#f74f14" d="M200.597 298.074c.021 1.642-.282 3.396-.594 5.537-.558.325-1.108.264-2.039.02.516-1.938 1.412-3.691 2.633-5.557"/>
  <path fill="#fbf152" d="M215.122 258.297c.379-.31.796-.302 1.57.007.672.777.989 1.253 1.204 1.94-.286.475-.522.679-.808.824-.643-.819-1.285-1.637-1.966-2.771"/>
  <path fill="#fee337" d="M217.16 261.372c.214-.45.45-.653 1.067-1.136.872-.22 1.313-.22 1.753-.218-.33.92-.658 1.84-1.026 3.128-.6-.243-1.161-.856-1.794-1.774"/>
  <path fill="#f74f14" d="M204.001 295.643c-.514.61-1.03.877-1.832 1.21.194-.85.673-1.768 1.455-2.8.327.338.35.793.377 1.59"/>
  <path fill="#fdfc6d" d="M205.035 240.587c.004.316-.334.375-.504.4-.593-.434-1.015-.892-1.486-1.66.4-.318.85-.328 1.638-.33.341.429.345.851.352 1.59"/>
  <path fill="#ec2d12" d="M205.66 291.166c.083.424-.105.957-.573 1.59-.086-.428.108-.955.573-1.59"/>
  <path fill="#fee337" d="M219.742 265.442q.59.31 1.191 1.744-.59-.31-1.191-1.744m-.692-1.206c.242-.039.482.214.768.731-.226.03-.498-.205-.767-.731"/>
  <path fill="#f74f14" d="M201.675 296.963c.087.224-.086.503-.49.88-.077-.21.076-.518.49-.88m2.979-4.028c.099.239-.078.526-.493.917-.086-.22.065-.544.493-.917"/>
  <path fill="#ec2d12" d="M206.642 289.981c.218.27.078.539-.392.838-.253-.264-.131-.555.392-.838"/>
  <path fill="#d13a19" d="M315.2 325.239c3.293.217 6.785.856 10.306 1.168 4.792.424 9.288-.134 12.076-5.314.664 5.689-3.897 6.087-7.832 6.774-2.534.442-5.205.097-8.27.096a46 46 0 0 1-6.28-2.724"/>
  <path fill="#fb7a10" d="M291.046 250.83c-1.442 2.813-2.929 5.348-4.932 8.067-.69.184-.863.182-1.127-.19-.566-.775-.978-1.387-1.525-1.554-8.325-2.546-15.04-7.392-20.452-14.138 7 2.372 13.961 4.875 21.028 7.03 1.867.57 4.061.067 6.476.003.41.132.449.316.532.781"/>
  <path fill="#f86914" d="M262.717 242.882c5.704 6.879 12.42 11.725 20.745 14.27.547.168.959.78 1.402 1.823a56 56 0 0 1-.221 2.287s-.074.26-.528.174c-1.996.675-3.537 1.435-4.745 2.03-4.592-3.56-9.05-7.016-13.779-10.609-1.035-1.042-1.8-1.948-2.7-3.154-.973-1.77-1.812-3.24-2.652-4.71-.402-1.081-.805-2.163-1.231-3.59 1.123.218 2.27.782 3.71 1.48m-3.782-2.189c-.66-.429-1.324-1.18-1.968-2.28.668.42 1.317 1.189 1.968 2.28"/>
  <path fill="#ebd552" d="M295.95 243.203c.083.444-.13 1.047-.615 1.831-.076-.437.121-1.055.614-1.831m1.778-2.02c.068.185-.077.476-.467.838-.142-.237.026-.504.467-.838m-.88.957c.104.236-.037.6-.473 1.022-.12-.258.054-.575.473-1.021"/>
  <path fill="#fed524" d="M220.13 259.685c-.59.332-1.03.331-1.802.339-.647-.467-.964-.943-1.323-1.714-1.601-6.523.227-9.953 5.739-13.175 7.089-4.144 13.858-8.832 20.868-13.118 1.669-1.02 3.744-1.374 5.964-2.04 1.356 1.412 2.38 2.83 3.459 4.57-2.87 2.156-5.824 3.942-8.711 5.832-7.39 4.838-14.812 9.63-22.054 14.682-1.118.78-1.35 2.83-2.14 4.624"/>
  <path fill="#ebd552" d="M333.85 188.569c-.458.617-.848.993-1.498 1.465.382-.893 1.023-1.883 1.975-2.914.07.375-.17.791-.477 1.449"/>
  <path fill="#fcc920" d="M378.967 177.35c.408-.112 1.021.015 1.826.399-.413.118-1.017-.02-1.826-.399m-3.041-1.01q.591-.196 1.815.294-.591.195-1.815-.294"/>
  <path fill="#fee337" d="M169.845 268.08c.462 3.385.483 6.728.441 10.534-1.39-.422-2.716-1.307-5.087-2.888-6.95 5.446-14.216 11.274-21.638 16.898-3.1 2.349-6.53 4.264-10.174 6.387 1.55-2.85 3.322-5.82 5.41-8.55 6.49-8.488 15.503-14.113 23.848-20.453 1.745-1.326 4.481-1.348 7.2-1.928"/>
  <path fill="#fbf152" d="M169.681 256.98c.613 1.19.864 2.38.964 3.851-4.978-1.095-8.248 1.638-11.343 4.631-5.527 5.346-10.84 10.924-16.546 16.067-1.854 1.671-4.657 2.289-7.395 3.427.14-.964.428-2.192 1.19-2.933 9.579-9.326 19.227-18.582 28.794-27.794 1.505 1.041 2.74 1.895 4.336 2.75"/>
  <path fill="#fe9b12" d="M278.194 271.104c.95 2.006 1.901 4.012 2.557 6.386-1.445.078-2.596-.212-3.752-.884-1.184-2.42-2.362-4.46-3.54-6.498-2.078 1.36-4.252 2.596-6.206 4.117-1.685 1.312-2.942 3.21-4.696 4.39-5.866 3.952-11.926 7.617-17.794 11.566-2.144 1.443-3.959 3.375-5.924 5.084-1.6-2.17-3.202-4.34-4.911-7.186-.4-1.464-.692-2.251-.578-3.052 1.23-.031 2.232.251 2.852-.114 8.455-4.975 17.292-9.465 25.065-15.355 3.255-2.467 7.996-5.862 7.133-11.539 3.456 4.484 6.625 8.785 9.794 13.085"/>
  <path fill="#fb7a10" d="M277.005 276.988c1.15.29 2.3.58 3.809.837.357-.032.354.035.322.369.32.804.672 1.273 1.024 1.743 0 0-.105.027-.1.328-.01.76-.025 1.218-.04 1.675-9.038 7.816-17.932 15.81-27.233 23.3-1.9 1.53-5.325 1.167-8.45 1.735-1.648-2.058-2.892-4.173-4.004-6.713 3.728-2.247 7.58-3.697 10.868-5.965 8.073-5.569 15.886-11.515 23.804-17.31"/>
  <path fill="#fe8d10" d="M276.999 276.606c-7.912 6.176-15.725 12.122-23.798 17.691-3.288 2.268-7.14 3.718-11.02 5.66-1.255-1.277-2.228-2.671-3.271-4.38 1.894-2.021 3.71-3.953 5.853-5.396 5.868-3.949 11.928-7.614 17.794-11.565 1.754-1.182 3.011-3.079 4.696-4.39 1.954-1.522 4.128-2.758 6.206-4.118 1.178 2.039 2.356 4.078 3.54 6.498"/>
  <path fill="#d13a19" d="M232.944 285.04c.292.788.583 1.575.932 2.679-.897-.466-1.852-1.248-2.852-2.362-.046-.333.196-.576.552-.586.694.083 1.03.176 1.368.27"/>
  <path fill="#fe9b12" d="M285.085 285.287c.69.406 1.361 1.171 2.045 2.256-.68-.419-1.373-1.158-2.045-2.256m-2.775-3.355c-.275-.45-.26-.907-.216-1.708.366.112.7.569 1.057 1.324-.17.325-.36.35-.841.384m4.837 6.176c.215-.046.495.122.737.554-.332.15-.542-.052-.737-.554m-3.983-6.01c.206-.056.506.125.848.58-.223.068-.489-.136-.848-.58m.963 1.052c.31-.22.573-.052.689.548-.295.118-.491-.08-.69-.548"/>
  <path fill="#ebd552" d="M331.777 190.09c-.18.86-.72 1.722-1.526 2.737.21-.81.69-1.772 1.526-2.737m-3.013 3.937c-.149.95-.648 1.86-1.434 2.901-.307-.634-.326-1.4-.335-2.547.48-.386.95-.39 1.77-.354m.978-.927c.093.207-.05.526-.449.93-.1-.217.057-.519.449-.93m-6.051 7.882c-2.464 4.604-5.256 9.199-8.351 13.948.343-1.939.989-4.031 1.682-6.483 1.191-1.928 2.335-3.496 3.975-5.428.682-.9.87-1.435 1.056-1.971.437-.025.873-.05 1.638-.066m2.984-3.958c-.458 1.228-1.3 2.44-2.41 3.829a14.6 14.6 0 0 1 2.41-3.83"/>
  <path fill="#fcc920" d="M321.79 201.048c.077.536-.11 1.072-.538 1.766-.07-.482.101-1.124.537-1.766"/>
  <path fill="#feef43" d="M204.455 234.53c-.03-.052.03.051 0 0"/>
  <path fill="#fdc01b" d="M259.884 244.88c1.195 1.583 2.034 3.053 2.772 5.087-2.643 1.733-5.29 2.719-7.71 4.101-7.872 4.498-15.683 9.105-23.472 13.746-2.629 1.567-5.935 2.679-5.674 6.73-1.115-1.348-2.23-2.697-3.418-4.362-.425-6.503 3.84-8.768 8.504-11.26 6.08-3.247 11.597-7.553 17.68-10.798 3.309-1.766 7.286-2.278 11.318-3.244"/>
  <path fill="#fea912" d="M233.35 285.027a6 6 0 0 1-1.653-.377c-1.088-1.903-1.94-3.694-2.685-6.19 1.147-1.468 2.46-3.088 3.177-2.857 4.525 1.46 7.138-1.445 10.219-3.734 6.383-4.743 14.694-6.75 19.419-13.943.745-1.134 2.884-1.351 4.675-1.946.734.65 1.173 1.253 1.61 1.856 1.15 5.86-3.59 9.255-6.845 11.722-7.773 5.89-16.61 10.38-25.065 15.355-.62.365-1.622.083-2.852.114"/>
  <path fill="#feb515" d="M266.205 255.933c-1.494.642-3.633.86-4.378 1.993-4.725 7.193-13.036 9.2-19.42 13.943-3.08 2.289-5.693 5.193-10.218 3.734-.717-.23-2.03 1.39-3.212 2.518-1.081-.77-2.018-1.907-3.067-3.31-.37-4.318 2.935-5.43 5.564-6.997 7.789-4.641 15.6-9.248 23.472-13.746 2.42-1.382 5.067-2.368 7.845-3.8 1 .641 1.765 1.547 2.878 2.953.411 1.237.474 1.975.536 2.712"/>
  <path fill="#d13a19" d="M266.502 255.98c-.36-.784-.422-1.522-.562-2.623 4.38 3.093 8.838 6.55 13.43 10.11 1.208-.596 2.749-1.356 4.629-1.96-1.51 3.198-3.36 6.24-5.508 9.44-3.466-4.143-6.635-8.444-10.091-12.928-.725-.786-1.164-1.389-1.898-2.039m18.368 5.146c-.164-.413-.1-.963.085-1.78.296-.267.47-.265.901-.23-.08.646-.419 1.26-.985 2.01"/>
  <path fill="#fe9b12" d="M282.16 279.624q-.529-.234-1.052-1.411.528.234 1.052 1.41"/>
</svg>
